<mxfile host="app.diagrams.net" modified="2024-03-09T20:51:02.399Z" agent="Mozilla/5.0 (Windows NT 10.0; Win64; x64) AppleWebKit/537.36 (KHTML, like Gecko) Chrome/122.0.0.0 Safari/537.36 Edg/122.0.0.0" etag="Ykand6s8St1J-c7OSHkD" version="24.0.4" type="device">
  <diagram name="1 oldal" id="0b46XYZZYJ89NNju-c6X">
    <mxGraphModel dx="911" dy="486" grid="1" gridSize="10" guides="1" tooltips="1" connect="1" arrows="1" fold="1" page="1" pageScale="1" pageWidth="1169" pageHeight="827" math="0" shadow="0">
      <root>
        <mxCell id="0" />
        <mxCell id="1" parent="0" />
        <mxCell id="jlOFJqttn6QJoe7Hy9mN-10" style="edgeStyle=orthogonalEdgeStyle;rounded=0;orthogonalLoop=1;jettySize=auto;html=1;exitX=0.5;exitY=0;exitDx=0;exitDy=0;entryX=0.5;entryY=1;entryDx=0;entryDy=0;" edge="1" parent="1" source="jlOFJqttn6QJoe7Hy9mN-1" target="jlOFJqttn6QJoe7Hy9mN-3">
          <mxGeometry relative="1" as="geometry" />
        </mxCell>
        <mxCell id="jlOFJqttn6QJoe7Hy9mN-1" value="Database A" style="rounded=0;whiteSpace=wrap;html=1;" vertex="1" parent="1">
          <mxGeometry x="180" y="630" width="120" height="60" as="geometry" />
        </mxCell>
        <mxCell id="jlOFJqttn6QJoe7Hy9mN-21" style="edgeStyle=orthogonalEdgeStyle;rounded=0;orthogonalLoop=1;jettySize=auto;html=1;exitX=0.5;exitY=0;exitDx=0;exitDy=0;exitPerimeter=0;entryX=0;entryY=0.5;entryDx=0;entryDy=0;" edge="1" parent="1" source="jlOFJqttn6QJoe7Hy9mN-2" target="jlOFJqttn6QJoe7Hy9mN-20">
          <mxGeometry relative="1" as="geometry" />
        </mxCell>
        <mxCell id="jlOFJqttn6QJoe7Hy9mN-2" value="Participant A" style="shape=umlActor;verticalLabelPosition=bottom;verticalAlign=top;html=1;outlineConnect=0;" vertex="1" parent="1">
          <mxGeometry x="80" y="440" width="30" height="60" as="geometry" />
        </mxCell>
        <mxCell id="jlOFJqttn6QJoe7Hy9mN-11" style="edgeStyle=orthogonalEdgeStyle;rounded=0;orthogonalLoop=1;jettySize=auto;html=1;exitX=0.5;exitY=0;exitDx=0;exitDy=0;entryX=0;entryY=0.5;entryDx=0;entryDy=0;" edge="1" parent="1" source="jlOFJqttn6QJoe7Hy9mN-3" target="jlOFJqttn6QJoe7Hy9mN-4">
          <mxGeometry relative="1" as="geometry" />
        </mxCell>
        <mxCell id="jlOFJqttn6QJoe7Hy9mN-3" value="Service A" style="rounded=0;whiteSpace=wrap;html=1;" vertex="1" parent="1">
          <mxGeometry x="180" y="550" width="120" height="60" as="geometry" />
        </mxCell>
        <mxCell id="jlOFJqttn6QJoe7Hy9mN-14" style="edgeStyle=orthogonalEdgeStyle;rounded=0;orthogonalLoop=1;jettySize=auto;html=1;exitX=1;exitY=0.5;exitDx=0;exitDy=0;entryX=0;entryY=0.5;entryDx=0;entryDy=0;startArrow=classic;startFill=1;" edge="1" parent="1" source="jlOFJqttn6QJoe7Hy9mN-4" target="jlOFJqttn6QJoe7Hy9mN-8">
          <mxGeometry relative="1" as="geometry" />
        </mxCell>
        <mxCell id="jlOFJqttn6QJoe7Hy9mN-17" style="edgeStyle=orthogonalEdgeStyle;rounded=0;orthogonalLoop=1;jettySize=auto;html=1;exitX=0;exitY=0;exitDx=0;exitDy=0;" edge="1" parent="1" source="jlOFJqttn6QJoe7Hy9mN-4" target="jlOFJqttn6QJoe7Hy9mN-15">
          <mxGeometry relative="1" as="geometry" />
        </mxCell>
        <mxCell id="jlOFJqttn6QJoe7Hy9mN-4" value="Connector A" style="rounded=1;whiteSpace=wrap;html=1;" vertex="1" parent="1">
          <mxGeometry x="260" y="460" width="120" height="60" as="geometry" />
        </mxCell>
        <mxCell id="jlOFJqttn6QJoe7Hy9mN-12" style="edgeStyle=orthogonalEdgeStyle;rounded=0;orthogonalLoop=1;jettySize=auto;html=1;exitX=0.5;exitY=0;exitDx=0;exitDy=0;entryX=0.5;entryY=1;entryDx=0;entryDy=0;" edge="1" parent="1" source="jlOFJqttn6QJoe7Hy9mN-5" target="jlOFJqttn6QJoe7Hy9mN-7">
          <mxGeometry relative="1" as="geometry" />
        </mxCell>
        <mxCell id="jlOFJqttn6QJoe7Hy9mN-5" value="Database B" style="rounded=0;whiteSpace=wrap;html=1;" vertex="1" parent="1">
          <mxGeometry x="520" y="630" width="120" height="60" as="geometry" />
        </mxCell>
        <mxCell id="jlOFJqttn6QJoe7Hy9mN-22" style="edgeStyle=orthogonalEdgeStyle;rounded=0;orthogonalLoop=1;jettySize=auto;html=1;exitX=0.5;exitY=0;exitDx=0;exitDy=0;exitPerimeter=0;entryX=1;entryY=0.5;entryDx=0;entryDy=0;" edge="1" parent="1" source="jlOFJqttn6QJoe7Hy9mN-6" target="jlOFJqttn6QJoe7Hy9mN-20">
          <mxGeometry relative="1" as="geometry" />
        </mxCell>
        <mxCell id="jlOFJqttn6QJoe7Hy9mN-6" value="Participant B" style="shape=umlActor;verticalLabelPosition=bottom;verticalAlign=top;html=1;outlineConnect=0;" vertex="1" parent="1">
          <mxGeometry x="700" y="440" width="30" height="60" as="geometry" />
        </mxCell>
        <mxCell id="jlOFJqttn6QJoe7Hy9mN-13" style="edgeStyle=orthogonalEdgeStyle;rounded=0;orthogonalLoop=1;jettySize=auto;html=1;exitX=0.5;exitY=0;exitDx=0;exitDy=0;entryX=1;entryY=0.5;entryDx=0;entryDy=0;" edge="1" parent="1" source="jlOFJqttn6QJoe7Hy9mN-7" target="jlOFJqttn6QJoe7Hy9mN-8">
          <mxGeometry relative="1" as="geometry" />
        </mxCell>
        <mxCell id="jlOFJqttn6QJoe7Hy9mN-7" value="Service B" style="rounded=0;whiteSpace=wrap;html=1;" vertex="1" parent="1">
          <mxGeometry x="520" y="550" width="120" height="60" as="geometry" />
        </mxCell>
        <mxCell id="jlOFJqttn6QJoe7Hy9mN-18" style="edgeStyle=orthogonalEdgeStyle;rounded=0;orthogonalLoop=1;jettySize=auto;html=1;exitX=1;exitY=0;exitDx=0;exitDy=0;entryX=0.5;entryY=1;entryDx=0;entryDy=0;" edge="1" parent="1" source="jlOFJqttn6QJoe7Hy9mN-8" target="jlOFJqttn6QJoe7Hy9mN-16">
          <mxGeometry relative="1" as="geometry" />
        </mxCell>
        <mxCell id="jlOFJqttn6QJoe7Hy9mN-8" value="Connector B" style="rounded=1;whiteSpace=wrap;html=1;" vertex="1" parent="1">
          <mxGeometry x="440" y="460" width="120" height="60" as="geometry" />
        </mxCell>
        <mxCell id="jlOFJqttn6QJoe7Hy9mN-24" style="edgeStyle=orthogonalEdgeStyle;rounded=0;orthogonalLoop=1;jettySize=auto;html=1;exitX=0.5;exitY=0;exitDx=0;exitDy=0;entryX=0;entryY=1;entryDx=0;entryDy=0;" edge="1" parent="1" source="jlOFJqttn6QJoe7Hy9mN-15" target="jlOFJqttn6QJoe7Hy9mN-20">
          <mxGeometry relative="1" as="geometry" />
        </mxCell>
        <mxCell id="jlOFJqttn6QJoe7Hy9mN-15" value="Veracity&amp;nbsp;&lt;span style=&quot;background-color: initial;&quot;&gt;A&lt;/span&gt;" style="rounded=1;whiteSpace=wrap;html=1;" vertex="1" parent="1">
          <mxGeometry x="140" y="320" width="120" height="60" as="geometry" />
        </mxCell>
        <mxCell id="jlOFJqttn6QJoe7Hy9mN-23" style="edgeStyle=orthogonalEdgeStyle;rounded=0;orthogonalLoop=1;jettySize=auto;html=1;exitX=0.5;exitY=0;exitDx=0;exitDy=0;entryX=1;entryY=1;entryDx=0;entryDy=0;" edge="1" parent="1" source="jlOFJqttn6QJoe7Hy9mN-16" target="jlOFJqttn6QJoe7Hy9mN-20">
          <mxGeometry relative="1" as="geometry" />
        </mxCell>
        <mxCell id="jlOFJqttn6QJoe7Hy9mN-16" value="Veracity B" style="rounded=1;whiteSpace=wrap;html=1;" vertex="1" parent="1">
          <mxGeometry x="560" y="320" width="120" height="60" as="geometry" />
        </mxCell>
        <mxCell id="jlOFJqttn6QJoe7Hy9mN-20" value="Fabric" style="ellipse;whiteSpace=wrap;html=1;" vertex="1" parent="1">
          <mxGeometry x="230" y="120" width="340" height="140" as="geometry" />
        </mxCell>
      </root>
    </mxGraphModel>
  </diagram>
</mxfile>
